<svg width="30" height="31" viewBox="0 0 30 31" fill="none" xmlns="http://www.w3.org/2000/svg">
<g filter="url(#filter0_d_1_193)">
<path d="M12.16 10.87C12.06 10.86 11.94 10.86 11.83 10.87C9.45 10.79 7.56 8.84 7.56 6.44C7.56 3.99 9.54 2 12 2C14.45 2 16.44 3.99 16.44 6.44C16.43 8.84 14.54 10.79 12.16 10.87Z" stroke="#787486" stroke-width="1.5" stroke-linecap="round" stroke-linejoin="round"/>
<path d="M19.41 4C21.35 4 22.91 5.57 22.91 7.5C22.91 9.39 21.41 10.93 19.54 11C19.46 10.99 19.37 10.99 19.28 11" stroke="#787486" stroke-width="1.5" stroke-linecap="round" stroke-linejoin="round"/>
<path d="M7.15997 14.56C4.73997 16.18 4.73997 18.82 7.15997 20.43C9.90997 22.27 14.42 22.27 17.17 20.43C19.59 18.81 19.59 16.17 17.17 14.56C14.43 12.73 9.91997 12.73 7.15997 14.56Z" stroke="#787486" stroke-width="1.5" stroke-linecap="round" stroke-linejoin="round"/>
<path d="M21.34 20C22.06 19.85 22.74 19.56 23.3 19.13C24.86 17.96 24.86 16.03 23.3 14.86C22.75 14.44 22.08 14.16 21.37 14" stroke="#787486" stroke-width="1.5" stroke-linecap="round" stroke-linejoin="round"/>
</g>
<defs>
<filter id="filter0_d_1_193" x="-1" y="0" width="32" height="32" filterUnits="userSpaceOnUse" color-interpolation-filters="sRGB">
<feFlood flood-opacity="0" result="BackgroundImageFix"/>
<feColorMatrix in="SourceAlpha" type="matrix" values="0 0 0 0 0 0 0 0 0 0 0 0 0 0 0 0 0 0 127 0" result="hardAlpha"/>
<feOffset dy="4"/>
<feGaussianBlur stdDeviation="2"/>
<feComposite in2="hardAlpha" operator="out"/>
<feColorMatrix type="matrix" values="0 0 0 0 0 0 0 0 0 0 0 0 0 0 0 0 0 0 0.25 0"/>
<feBlend mode="normal" in2="BackgroundImageFix" result="effect1_dropShadow_1_193"/>
<feBlend mode="normal" in="SourceGraphic" in2="effect1_dropShadow_1_193" result="shape"/>
</filter>
</defs>
</svg>
