<svg width="30" height="31" viewBox="0 0 30 31" fill="none" xmlns="http://www.w3.org/2000/svg">
<g filter="url(#filter0_d_4901_178)">
<path d="M15 15C16.6569 15 18 13.6569 18 12C18 10.3431 16.6569 9 15 9C13.3431 9 12 10.3431 12 12C12 13.6569 13.3431 15 15 15Z" stroke="#787486" stroke-width="1.5" stroke-miterlimit="10" stroke-linecap="round" stroke-linejoin="round"/>
<path d="M5 12.88V11.12C5 10.08 5.85 9.22 6.9 9.22C8.71 9.22 9.45 7.94 8.54 6.37C8.02 5.47 8.33 4.3 9.24 3.78L10.97 2.79C11.76 2.32 12.78 2.6 13.25 3.39L13.36 3.58C14.26 5.15 15.74 5.15 16.65 3.58L16.76 3.39C17.23 2.6 18.25 2.32 19.04 2.79L20.77 3.78C21.68 4.3 21.99 5.47 21.47 6.37C20.56 7.94 21.3 9.22 23.11 9.22C24.15 9.22 25.01 10.07 25.01 11.12V12.88C25.01 13.92 24.16 14.78 23.11 14.78C21.3 14.78 20.56 16.06 21.47 17.63C21.99 18.54 21.68 19.7 20.77 20.22L19.04 21.21C18.25 21.68 17.23 21.4 16.76 20.61L16.65 20.42C15.75 18.85 14.27 18.85 13.36 20.42L13.25 20.61C12.78 21.4 11.76 21.68 10.97 21.21L9.24 20.22C8.33 19.7 8.02 18.53 8.54 17.63C9.45 16.06 8.71 14.78 6.9 14.78C5.85 14.78 5 13.92 5 12.88Z" stroke="#787486" stroke-width="1.5" stroke-miterlimit="10" stroke-linecap="round" stroke-linejoin="round"/>
</g>
<defs>
<filter id="filter0_d_4901_178" x="0.25" y="1.81042" width="29.51" height="28.3792" filterUnits="userSpaceOnUse" color-interpolation-filters="sRGB">
<feFlood flood-opacity="0" result="BackgroundImageFix"/>
<feColorMatrix in="SourceAlpha" type="matrix" values="0 0 0 0 0 0 0 0 0 0 0 0 0 0 0 0 0 0 127 0" result="hardAlpha"/>
<feOffset dy="4"/>
<feGaussianBlur stdDeviation="2"/>
<feComposite in2="hardAlpha" operator="out"/>
<feColorMatrix type="matrix" values="0 0 0 0 0 0 0 0 0 0 0 0 0 0 0 0 0 0 0.25 0"/>
<feBlend mode="normal" in2="BackgroundImageFix" result="effect1_dropShadow_4901_178"/>
<feBlend mode="normal" in="SourceGraphic" in2="effect1_dropShadow_4901_178" result="shape"/>
</filter>
</defs>
</svg>
